<svg xmlns="http://www.w3.org/2000/svg" width="220" height="46" viewBox="0 0 220 46"><defs><mask id="35tkb" width="2" height="2" x="-1" y="-1"><path fill="#fff" d="M5 5h210v36H5z"/><path d="M7 5h191v.091c.169.052.357.126.482.224l15.77 15.999c.997.785.996 2.589 0 3.373l-15.77 16c-.124.097-.313.17-.482.222v.09H7a2 2 0 0 1-2-2V7a2 2 0 0 1 2-2z"/></mask><filter id="35tka" width="242" height="68" x="-11" y="-11" filterUnits="userSpaceOnUse"><feOffset in="SourceGraphic" result="FeOffset1032Out"/><feGaussianBlur in="FeOffset1032Out" result="FeGaussianBlur1033Out" stdDeviation="2.4 2.4"/></filter></defs><g><g><g filter="url(#35tka)"><path fill="none" d="M7 5h191v.091c.169.052.357.126.482.224l15.77 15.999c.997.785.996 2.589 0 3.373l-15.77 16c-.124.097-.313.17-.482.222v.09H7a2 2 0 0 1-2-2V7a2 2 0 0 1 2-2z" mask="url(&quot;#35tkb&quot;)"/><path fill="#dde0e5" d="M7 5h191v.091c.169.052.357.126.482.224l15.77 15.999c.997.785.996 2.589 0 3.373l-15.77 16c-.124.097-.313.17-.482.222v.09H7a2 2 0 0 1-2-2V7a2 2 0 0 1 2-2z"/></g><path fill="#fff" d="M7 5h191v.091c.169.052.357.126.482.224l15.77 15.999c.997.785.996 2.589 0 3.373l-15.77 16c-.124.097-.313.17-.482.222v.09H7a2 2 0 0 1-2-2V7a2 2 0 0 1 2-2z"/></g></g></svg>